<svg width="291" height="45" viewBox="0 0 291 45" fill="none" xmlns="http://www.w3.org/2000/svg">
<rect width="175" height="45" fill="#37474F"/>
<rect x="175" width="116" height="45" fill="#424242"/>
<path d="M17.4965 35.432C15.5045 35.432 13.5725 35.168 11.7005 34.64C9.85252 34.088 8.36452 33.38 7.23652 32.516L9.21652 28.124C10.2965 28.916 11.5805 29.552 13.0685 30.032C14.5565 30.512 16.0445 30.752 17.5325 30.752C19.1885 30.752 20.4125 30.512 21.2045 30.032C21.9965 29.528 22.3925 28.868 22.3925 28.052C22.3925 27.452 22.1525 26.96 21.6725 26.576C21.2165 26.168 20.6165 25.844 19.8725 25.604C19.1525 25.364 18.1685 25.1 16.9205 24.812C15.0005 24.356 13.4285 23.9 12.2045 23.444C10.9805 22.988 9.92452 22.256 9.03652 21.248C8.17252 20.24 7.74052 18.896 7.74052 17.216C7.74052 15.752 8.13652 14.432 8.92852 13.256C9.72052 12.056 10.9085 11.108 12.4925 10.412C14.1005 9.716 16.0565 9.368 18.3605 9.368C19.9685 9.368 21.5405 9.56 23.0765 9.944C24.6125 10.328 25.9565 10.88 27.1085 11.6L25.3085 16.028C22.9805 14.708 20.6525 14.048 18.3245 14.048C16.6925 14.048 15.4805 14.312 14.6885 14.84C13.9205 15.368 13.5365 16.064 13.5365 16.928C13.5365 17.792 13.9805 18.44 14.8685 18.872C15.7805 19.28 17.1605 19.688 19.0085 20.096C20.9285 20.552 22.5005 21.008 23.7245 21.464C24.9485 21.92 25.9925 22.64 26.8565 23.624C27.7445 24.608 28.1885 25.94 28.1885 27.62C28.1885 29.06 27.7805 30.38 26.9645 31.58C26.1725 32.756 24.9725 33.692 23.3645 34.388C21.7565 35.084 19.8005 35.432 17.4965 35.432ZM48.7695 29.6H37.0695L34.8375 35H28.8615L40.0935 9.8H45.8535L57.1215 35H51.0015L48.7695 29.6ZM46.9335 25.172L42.9375 15.524L38.9415 25.172H46.9335ZM82.848 9.8V35H78.06L65.496 19.7V35H59.736V9.8H64.56L77.088 25.1V9.8H82.848ZM100.906 26.072V35H95.0743V26L85.3183 9.8H91.5103L98.2423 20.996L104.974 9.8H110.698L100.906 26.072ZM128.188 29.6H116.488L114.256 35H108.28L119.512 9.8H125.272L136.54 35H130.42L128.188 29.6ZM126.352 25.172L122.356 15.524L118.36 25.172H126.352ZM162.086 35L162.05 19.88L154.634 32.336H152.006L144.626 20.204V35H139.154V9.8H143.978L153.41 25.46L162.698 9.8H167.486L167.558 35H162.086ZM200.328 29.6H188.628L186.396 35H180.42L191.652 9.8H197.412L208.68 35H202.56L200.328 29.6ZM198.492 25.172L194.496 15.524L190.5 25.172H198.492ZM227.351 35L222.491 27.98H222.203H217.127V35H211.295V9.8H222.203C224.435 9.8 226.367 10.172 227.999 10.916C229.655 11.66 230.927 12.716 231.815 14.084C232.703 15.452 233.147 17.072 233.147 18.944C233.147 20.816 232.691 22.436 231.779 23.804C230.891 25.148 229.619 26.18 227.963 26.9L233.615 35H227.351ZM227.243 18.944C227.243 17.528 226.787 16.448 225.875 15.704C224.963 14.936 223.631 14.552 221.879 14.552H217.127V23.336H221.879C223.631 23.336 224.963 22.952 225.875 22.184C226.787 21.416 227.243 20.336 227.243 18.944ZM249.512 26.072V35H243.68V26L233.924 9.8H240.116L246.848 20.996L253.58 9.8H259.304L249.512 26.072ZM276.793 29.6H265.093L262.861 35H256.885L268.117 9.8H273.877L285.145 35H279.025L276.793 29.6ZM274.957 25.172L270.961 15.524L266.965 25.172H274.957Z" fill="#ECEFF1"/>
</svg>
