<svg width="222" height="170" viewBox="0 0 222 170" fill="none" xmlns="http://www.w3.org/2000/svg">
<g filter="url(#filter0_d)">
<circle cx="17" cy="10" r="4" fill="#37474F"/>
<circle cx="205" cy="10" r="4" fill="#37474F"/>
<path d="M211 1H10.9998C10.9998 1 -7.09481 87.5774 20.9996 121C43.4751 147.738 76.0704 161 111 161C145.93 161 178.525 147.738 201 121C229.094 87.5774 211 1 211 1Z" stroke="#37474F" stroke-width="2"/>
<path d="M198.956 17H23.044C23.044 17 7.12868 89.5086 31.8394 117.5C51.6079 139.893 80.2775 151 111 151C141.723 151 170.392 139.893 190.161 117.5C214.871 89.5086 198.956 17 198.956 17Z" stroke="#424242"/>
<path d="M76.8116 72V37.152H70.2356V33.12H88.6196V37.152H82.2356V72H76.8116ZM92.6558 72V33.12H97.9838V72H92.6558ZM104.178 72L104.898 33.12H110.226L117.09 64.656L124.002 33.12H129.282L130.002 72H125.634L125.202 43.776L118.626 72H115.554L109.026 43.776L108.594 72H104.178ZM135.962 72V33.12H151.034V37.152H141.386V50.016H149.21V53.856H141.386V68.112H151.13V72H135.962ZM45.6334 124V85.12H55.2814C57.6174 85.12 59.4734 85.552 60.8494 86.416C62.2574 87.248 63.2814 88.464 63.9214 90.064C64.5614 91.664 64.8814 93.6 64.8814 95.872C64.8814 97.92 64.5134 99.696 63.7774 101.2C63.0734 102.704 62.0174 103.872 60.6094 104.704C59.2014 105.504 57.4414 105.904 55.3294 105.904H51.0574V124H45.6334ZM51.0574 102.016H53.5534C55.1214 102.016 56.3534 101.84 57.2494 101.488C58.1454 101.136 58.7854 100.528 59.1694 99.664C59.5534 98.768 59.7454 97.52 59.7454 95.92C59.7454 94.064 59.6014 92.64 59.3134 91.648C59.0574 90.656 58.4974 89.968 57.6334 89.584C56.7694 89.2 55.4254 89.008 53.6014 89.008H51.0574V102.016ZM78.6319 124.432C76.0079 124.432 73.9119 123.92 72.3439 122.896C70.7759 121.872 69.6559 120.416 68.9839 118.528C68.3119 116.608 67.9759 114.368 67.9759 111.808V97.072C67.9759 94.512 68.3119 92.32 68.9839 90.496C69.6879 88.64 70.8079 87.232 72.3439 86.272C73.9119 85.28 76.0079 84.784 78.6319 84.784C81.2559 84.784 83.3359 85.28 84.8719 86.272C86.4079 87.264 87.5119 88.672 88.1839 90.496C88.8879 92.32 89.2399 94.512 89.2399 97.072V111.856C89.2399 114.384 88.8879 116.592 88.1839 118.48C87.5119 120.368 86.4079 121.84 84.8719 122.896C83.3359 123.92 81.2559 124.432 78.6319 124.432ZM78.6319 120.16C80.0719 120.16 81.1599 119.872 81.8959 119.296C82.6319 118.688 83.1279 117.856 83.3839 116.8C83.6399 115.712 83.7679 114.448 83.7679 113.008V95.968C83.7679 94.528 83.6399 93.296 83.3839 92.272C83.1279 91.216 82.6319 90.416 81.8959 89.872C81.1599 89.296 80.0719 89.008 78.6319 89.008C77.1919 89.008 76.0879 89.296 75.3199 89.872C74.5839 90.416 74.0879 91.216 73.8319 92.272C73.5759 93.296 73.4479 94.528 73.4479 95.968V113.008C73.4479 114.448 73.5759 115.712 73.8319 116.8C74.0879 117.856 74.5839 118.688 75.3199 119.296C76.0879 119.872 77.1919 120.16 78.6319 120.16ZM104.315 124.432C101.563 124.432 99.4189 123.856 97.8829 122.704C96.3789 121.552 95.3229 120 94.7149 118.048C94.1389 116.096 93.8509 113.92 93.8509 111.52V97.792C93.8509 95.168 94.1389 92.88 94.7149 90.928C95.3229 88.976 96.3789 87.472 97.8829 86.416C99.4189 85.328 101.563 84.784 104.315 84.784C106.747 84.784 108.667 85.232 110.075 86.128C111.515 87.024 112.539 88.304 113.147 89.968C113.787 91.632 114.107 93.632 114.107 95.968V99.04H108.971V96.304C108.971 94.864 108.891 93.6 108.731 92.512C108.603 91.392 108.219 90.528 107.579 89.92C106.939 89.312 105.867 89.008 104.363 89.008C102.827 89.008 101.707 89.344 101.003 90.016C100.299 90.656 99.8349 91.584 99.6109 92.8C99.4189 93.984 99.3229 95.376 99.3229 96.976V112.384C99.3229 114.336 99.4829 115.888 99.8029 117.04C100.123 118.16 100.651 118.96 101.387 119.44C102.123 119.92 103.115 120.16 104.363 120.16C105.835 120.16 106.891 119.84 107.531 119.2C108.171 118.528 108.571 117.616 108.731 116.464C108.891 115.312 108.971 113.968 108.971 112.432V109.552H114.107V112.432C114.107 114.8 113.819 116.896 113.243 118.72C112.667 120.512 111.675 121.92 110.267 122.944C108.859 123.936 106.875 124.432 104.315 124.432ZM119.274 124V85.12H124.698V103.456L133.626 85.12H138.666L130.986 102.256L139.914 124H134.634L127.194 105.76L124.698 110.272V124H119.274ZM143.04 124V85.12H158.112V89.152H148.464V102.016H156.288V105.856H148.464V120.112H158.208V124H143.04ZM166.859 124V89.152H160.283V85.12H178.667V89.152H172.283V124H166.859Z" fill="#37474F"/>
</g>
<defs>
<filter id="filter0_d" x="0.265137" y="0" width="221.469" height="170" filterUnits="userSpaceOnUse" color-interpolation-filters="sRGB">
<feFlood flood-opacity="0" result="BackgroundImageFix"/>
<feColorMatrix in="SourceAlpha" type="matrix" values="0 0 0 0 0 0 0 0 0 0 0 0 0 0 0 0 0 0 127 0"/>
<feOffset dy="4"/>
<feGaussianBlur stdDeviation="2"/>
<feColorMatrix type="matrix" values="0 0 0 0 0 0 0 0 0 0 0 0 0 0 0 0 0 0 0.25 0"/>
<feBlend mode="normal" in2="BackgroundImageFix" result="effect1_dropShadow"/>
<feBlend mode="normal" in="SourceGraphic" in2="effect1_dropShadow" result="shape"/>
</filter>
</defs>
</svg>
